# xmcd CD database file
#
# Track frame offsets:
#	150
#	15139
#	32678
#	45448
#	61745
#	75822
#	90928
#	108121
#	126916
#	141492
#	158485
#	171838
#	188521
#
# Disc length: 2748 seconds
#
# Revision: 0
# Processed by: cddbd v1.5.2PL0 Copyright (c) Steve Scherf et al.
# Submitted via: CDex 1.51
#
DISCID=840aba0d
DTITLE=Ulita Knaus - Tambor
DYEAR=2010
DGENRE=Jazz
TTITLE0=Es wird eh passiern
TTITLE1=Bester Lover
TTITLE2=Wir checken deinen Marktwert
TTITLE3=Sie ist das Licht
TTITLE4=Warum?
TTITLE5=Und wie heisst du?
TTITLE6=Du bist es Wert
TTITLE7=Lass mich gehen
TTITLE8=Halt das Feuer im Zaum
TTITLE9=Später ist jetzt
TTITLE10=Nur bei dir
TTITLE11=Bevor dich eine andere bekommt
TTITLE12=Früheres Leben
EXTD=YEAR: 2010
EXTT0=
EXTT1=
EXTT2=
EXTT3=
EXTT4=
EXTT5=
EXTT6=
EXTT7=
EXTT8=
EXTT9=
EXTT10=
EXTT11=
EXTT12=
PLAYORDER=
